<svg id="visual" viewBox="0 0 900 600" width="900" height="600" xmlns="http://www.w3.org/2000/svg" xmlns:xlink="http://www.w3.org/1999/xlink" version="1.1"><rect x="0" y="0" width="900" height="600" fill="#ddd78d"></rect><defs><linearGradient id="grad1_0" x1="33.3%" y1="0%" x2="100%" y2="100%"><stop offset="20%" stop-color="#ddd78d" stop-opacity="1"></stop><stop offset="80%" stop-color="#ddd78d" stop-opacity="1"></stop></linearGradient></defs><defs><linearGradient id="grad2_0" x1="0%" y1="0%" x2="66.7%" y2="100%"><stop offset="20%" stop-color="#ddd78d" stop-opacity="1"></stop><stop offset="80%" stop-color="#ddd78d" stop-opacity="1"></stop></linearGradient></defs><g transform="translate(900, 0)"><path d="M0 486.7C-72.9 488.6 -145.7 490.4 -186.3 449.7C-226.8 409 -235.1 325.9 -280 280C-325 234.2 -406.6 225.7 -447.2 185.2C-487.7 144.8 -487.2 72.4 -486.7 0L0 0Z" fill="#60594d"></path></g><g transform="translate(0, 600)"><path d="M0 -486.7C68.5 -479.3 137 -471.9 179.9 -434.2C222.7 -396.6 239.9 -328.8 287.1 -287.1C334.3 -245.4 411.4 -229.8 449.7 -186.3C488 -142.8 487.4 -71.4 486.7 0L0 0Z" fill="#60594d"></path></g></svg>