<svg id="visual" viewBox="0 0 900 600" width="900" height="600" xmlns="http://www.w3.org/2000/svg" xmlns:xlink="http://www.w3.org/1999/xlink" version="1.1"><rect x="0" y="0" width="900" height="600" fill="#ddd78d"></rect><path d="M0 432L21.5 433.3C43 434.7 86 437.3 128.8 426.2C171.7 415 214.3 390 257.2 375.5C300 361 343 357 385.8 358C428.7 359 471.3 365 514.2 373.3C557 381.7 600 392.3 642.8 389.3C685.7 386.3 728.3 369.7 771.2 369.8C814 370 857 387 878.5 395.5L900 404L900 601L878.5 601C857 601 814 601 771.2 601C728.3 601 685.7 601 642.8 601C600 601 557 601 514.2 601C471.3 601 428.7 601 385.8 601C343 601 300 601 257.2 601C214.3 601 171.7 601 128.8 601C86 601 43 601 21.5 601L0 601Z" fill="#60594d"></path><path d="M0 402L21.5 405.5C43 409 86 416 128.8 419.8C171.7 423.7 214.3 424.3 257.2 422.7C300 421 343 417 385.8 419.8C428.7 422.7 471.3 432.3 514.2 431.7C557 431 600 420 642.8 417.8C685.7 415.7 728.3 422.3 771.2 432.5C814 442.7 857 456.3 878.5 463.2L900 470L900 601L878.5 601C857 601 814 601 771.2 601C728.3 601 685.7 601 642.8 601C600 601 557 601 514.2 601C471.3 601 428.7 601 385.8 601C343 601 300 601 257.2 601C214.3 601 171.7 601 128.8 601C86 601 43 601 21.5 601L0 601Z" fill="#6b6452"></path><path d="M0 490L21.5 485.3C43 480.7 86 471.3 128.8 471.7C171.7 472 214.3 482 257.2 483.8C300 485.7 343 479.3 385.8 479.2C428.7 479 471.3 485 514.2 491C557 497 600 503 642.8 503C685.7 503 728.3 497 771.2 492.8C814 488.7 857 486.3 878.5 485.2L900 484L900 601L878.5 601C857 601 814 601 771.2 601C728.3 601 685.7 601 642.8 601C600 601 557 601 514.2 601C471.3 601 428.7 601 385.8 601C343 601 300 601 257.2 601C214.3 601 171.7 601 128.8 601C86 601 43 601 21.5 601L0 601Z" fill="#757057"></path><path d="M0 494L21.5 497.8C43 501.7 86 509.3 128.8 514.8C171.7 520.3 214.3 523.7 257.2 520.3C300 517 343 507 385.8 503.8C428.7 500.7 471.3 504.3 514.2 506.8C557 509.3 600 510.7 642.8 509.8C685.7 509 728.3 506 771.2 508.2C814 510.3 857 517.7 878.5 521.3L900 525L900 601L878.5 601C857 601 814 601 771.2 601C728.3 601 685.7 601 642.8 601C600 601 557 601 514.2 601C471.3 601 428.7 601 385.8 601C343 601 300 601 257.2 601C214.3 601 171.7 601 128.8 601C86 601 43 601 21.5 601L0 601Z" fill="#7d7d5d"></path><path d="M0 525L21.5 531C43 537 86 549 128.8 549.3C171.7 549.7 214.3 538.3 257.2 536.7C300 535 343 543 385.8 547.8C428.7 552.7 471.3 554.3 514.2 553.2C557 552 600 548 642.8 545.8C685.7 543.7 728.3 543.3 771.2 547.3C814 551.3 857 559.7 878.5 563.8L900 568L900 601L878.5 601C857 601 814 601 771.2 601C728.3 601 685.7 601 642.8 601C600 601 557 601 514.2 601C471.3 601 428.7 601 385.8 601C343 601 300 601 257.2 601C214.3 601 171.7 601 128.8 601C86 601 43 601 21.5 601L0 601Z" fill="#848a63"></path></svg>