<svg id="visual" viewBox="0 0 900 600" width="900" height="600" xmlns="http://www.w3.org/2000/svg" xmlns:xlink="http://www.w3.org/1999/xlink" version="1.1"><path d="M0 49L82 79L164 103L245 49L327 43L409 79L491 67L573 73L655 43L736 97L818 103L900 37L900 0L818 0L736 0L655 0L573 0L491 0L409 0L327 0L245 0L164 0L82 0L0 0Z" fill="#ddd78d"></path><path d="M0 175L82 211L164 271L245 253L327 181L409 271L491 241L573 187L655 229L736 217L818 253L900 247L900 35L818 101L736 95L655 41L573 71L491 65L409 77L327 41L245 47L164 101L82 77L0 47Z" fill="#c0b57c"></path><path d="M0 343L82 421L164 367L245 457L327 379L409 415L491 397L573 415L655 403L736 385L818 439L900 409L900 245L818 251L736 215L655 227L573 185L491 239L409 269L327 179L245 251L164 269L82 209L0 173Z" fill="#a1946c"></path><path d="M0 481L82 511L164 499L245 523L327 523L409 493L491 529L573 505L655 523L736 541L818 517L900 499L900 407L818 437L736 383L655 401L573 413L491 395L409 413L327 377L245 455L164 365L82 419L0 341Z" fill="#81765c"></path><path d="M0 601L82 601L164 601L245 601L327 601L409 601L491 601L573 601L655 601L736 601L818 601L900 601L900 497L818 515L736 539L655 521L573 503L491 527L409 491L327 521L245 521L164 497L82 509L0 479Z" fill="#60594d"></path></svg>