<svg id="visual" viewBox="0 0 900 600" width="900" height="600" xmlns="http://www.w3.org/2000/svg" xmlns:xlink="http://www.w3.org/1999/xlink" version="1.1"><rect x="0" y="0" width="900" height="600" fill="#ddd78d"></rect><path d="M0 440L21.5 445.5C43 451 86 462 128.8 457.5C171.7 453 214.3 433 257.2 426C300 419 343 425 385.8 442.7C428.7 460.3 471.3 489.7 514.2 503.8C557 518 600 517 642.8 508.2C685.7 499.3 728.3 482.7 771.2 460.8C814 439 857 412 878.5 398.5L900 385L900 601L878.5 601C857 601 814 601 771.2 601C728.3 601 685.7 601 642.8 601C600 601 557 601 514.2 601C471.3 601 428.7 601 385.8 601C343 601 300 601 257.2 601C214.3 601 171.7 601 128.8 601C86 601 43 601 21.5 601L0 601Z" fill="#60594d" stroke-linecap="round" stroke-linejoin="miter"></path></svg>